# xmcd
# 
# Track frame offsets:
#     150
#     14020
#     24287
#     34878
#     48215
#     63118
#     82618
#     91602
#     105967
#     125324
#     141304
# 
# Disc length: 2035
# 
# Revision: 1
# Processed by: cddbd v1.5.2PL0 Copyright (c) Steve Scherf et al.
# Submitted via: fre:ac v1.0.17
# 
DISCID=7507f10b
DTITLE=Flying Burrito Brothers - Desperado
DYEAR=0
DGENRE=Country
TTITLE0=Another shade of grey
TTITLE1=Baby, how´d we ever get this way
TTITLE2=Cheating kind of love
TTITLE3=Closer to you
TTITLE4=Coast to caost
TTITLE5=Damned if i´ll be lonely tonight
TTITLE6=I swear I don´t miss her anymore
TTITLE7=If something should come between us
TTITLE8=Louisiana
TTITLE9=Midnight magic woman
TTITLE10=My abandoned heart
EXTD=
EXTT0=
EXTT1=
EXTT2=
EXTT3=
EXTT4=
EXTT5=
EXTT6=
EXTT7=
EXTT8=
EXTT9=
EXTT10=
PLAYORDER=
